

Release info:

General
Format : Matroska
Format version : Version 2
File size : 702 MiB
Duration : 1h 35mn
Overall bit rate : 1 025 Kbps

Video
ID : 1
Format : MPEG-4 Visual
Format profile : Advanced Simple@L5
Format settings, BVOP : Yes
Format settings, QPel : No
Format settings, GMC : No warppoints
Format settings, Matrix : Default (H.263)
Codec ID : V_MS/VFW/FOURCC / XVID
Codec ID/Hint : XviD
Duration : 1h 35mn
Bit rate : 877 Kbps
Width : 624 pixels
Height : 304 pixels
Display aspect ratio : 2.053
Frame rate mode : Constant
Frame rate : 23.976 fps
Color space : YUV
Chroma subsampling : 4:2:0
Bit depth : 8 bits
Scan type : Progressive
Compression mode : Lossy
Bits/(Pixel*Frame) : 0.193
Stream size : 600 MiB (86%)
Writing library : XviD 64
Language : English
Default : Yes
Forced : No

Audio
ID : 2
Format : MPEG Audio
Format version : Version 1
Format profile : Layer 3
Mode : Joint stereo
Mode extension : MS Stereo
Muxing mode : Header stripping
Codec ID : A_MPEG/L3
Codec ID/Hint : MP3
Duration : 1h 35mn
Bit rate mode : Constant
Bit rate : 128 Kbps
Channel(s) : 2 channels
Sampling rate : 48.0 KHz
Compression mode : Lossy
Delay relative to video : 12ms
Stream size : 87.6 MiB (12%)
Language : English
Default : Yes
Forced : No

Source:
credit to original movie ripper HELLRAZ0R (Thanks)

IMDB Info:

On the hunt for a fabled treasure of gold, a band of warriors, assassins, and a rogue British soldier descend upon a village in feudal China, where a humble blacksmith looks to defend himself and his fellow villagers.

Director: RZA
Writers: Eli Roth (screenplay), RZA (screenplay)
Stars: Russell Crowe, Cung Le and Lucy Liu

Genres: Action
 
http://www.imdb.com/title/tt1258972/

Screen Shot:
 
http://www.shotpix.com/images/41076097843116516853.png 
http://www.shotpix.com/images/00316649470289031603.png 
http://www.shotpix.com/images/08748737844561485891.png 
http://www.shotpix.com/images/97594706116280454917.png 
http://www.shotpix.com/images/86160114337970186084.png 
http://www.shotpix.com/images/47785671386466725597.png